<svg version="1.1" xmlns="http://www.w3.org/2000/svg" xmlns:xlink="http://www.w3.org/1999/xlink" x="0px" y="0px" viewBox="0 0 1000 1000" enable-background="new 0 0 1000 1000" xml:space="preserve">
<g><path d="M874.3,990H125.7c-28.8,0-52.3-23.4-52.3-52.2V403.5c0-28.8,23.5-52.3,52.3-52.3h748.6c28.8,0,52.2,23.4,52.2,52.3v534.3C926.6,966.6,903.1,990,874.3,990z M125.7,372.6c-17,0-30.9,13.9-30.9,30.9v534.3c0,17,13.9,30.9,30.9,30.9h748.6c17,0,30.9-13.9,30.9-30.9V403.5c0-17.1-13.9-30.9-30.9-30.9H125.7z"/><path d="M883.9,116.6h-85.3v106.6c0,35.3-28.6,64-64,64c-35.3,0-64-28.7-64-64V116.6H329.4v106.6c0,35.3-28.6,64-64,64c-35.3,0-64-28.7-64-64V116.6h-85.3c-23.5,0-42.7,19.1-42.7,42.7v255.9h853.1l0-255.9C926.6,135.7,907.5,116.6,883.9,116.6z"/><path d="M308,223.3c0,23.5-19.1,42.7-42.7,42.7l0,0c-23.5,0-42.7-19.1-42.7-42.7V52.7c0-23.5,19.1-42.7,42.7-42.7l0,0c23.5,0,42.7,19.1,42.7,42.7V223.3z"/><path d="M777.3,223.3c0,23.5-19.1,42.7-42.7,42.7l0,0c-23.5,0-42.7-19.1-42.7-42.7V52.7c0-23.5,19.1-42.7,42.7-42.7l0,0c23.6,0,42.7,19.1,42.7,42.7V223.3z"/><path d="M158.8,479.2h85.3v64h-85.3V479.2z"/><path d="M158.8,585.9h85.3v64h-85.3V585.9z"/><path d="M158.8,692.5h85.3v64h-85.3V692.5z"/><path d="M158.8,799.1h85.3v64h-85.3V799.1z"/><path d="M308,479.2h85.3v64H308V479.2z"/><path d="M308,585.9h85.3v64H308V585.9z"/><path d="M308,692.5h85.3v64H308V692.5z"/><path d="M308,799.1h85.3v64H308V799.1z"/><path d="M457.3,479.2h85.3v64h-85.3V479.2z"/><path d="M457.3,585.9h85.3v64h-85.3V585.9z"/><path d="M457.3,692.5h85.3v64h-85.3V692.5z"/><path d="M457.3,799.1h85.3v64h-85.3V799.1z"/><path d="M606.6,479.2H692v64h-85.3V479.2z"/><path d="M606.6,585.9H692v64h-85.3V585.9z"/><path d="M606.6,692.5H692v64h-85.3V692.5z"/><path d="M606.6,799.1H692v64h-85.3V799.1z"/><path d="M755.9,479.2h85.3v64h-85.3V479.2z"/><path d="M755.9,585.9h85.3v64h-85.3V585.9z"/><path d="M755.9,692.5h85.3v64h-85.3V692.5z"/><path d="M755.9,799.1h85.3v64h-85.3V799.1z"/></g>
</svg>
